<?xml version="1.0" encoding="UTF-8"?>
<svg version="1.1" xmlns="http://www.w3.org/2000/svg" width="1600" height="624">
<path d="M0 0 C528 0 1056 0 1600 0 C1600 205.92 1600 411.84 1600 624 C1072 624 544 624 0 624 C0 418.08 0 212.16 0 0 Z " fill="#FEFEFE" transform="translate(0,0)"/>
<path d="M0 0 C30.03 0 60.06 0 91 0 C91.33 52.14 91.66 104.28 92 158 C98.27 154.7 104.54 151.4 111 148 C142.79431911 135.07031023 177.932536 129.50028647 212 136 C213.52062168 136.24869347 215.04147198 136.49599145 216.5625 136.7421875 C225.72700393 138.31044486 234.43967703 140.59065783 243.1875 143.75 C244.01644775 144.0485791 244.84539551 144.3471582 245.69946289 144.65478516 C254.41266334 147.94104094 262.5071163 152.00334885 271 156 C271.33 104.52 271.66 53.04 272 0 C302.03 0 332.06 0 363 0 C363.16121214 49.47869168 363.16121214 49.47869168 363.1953125 70.32617188 C363.21898125 84.68031579 363.24669752 99.0343653 363.30175781 113.38842773 C363.34185125 123.84573283 363.3674859 134.3029608 363.37635398 144.76034063 C363.38153091 150.28826706 363.39354264 155.81597302 363.42292023 161.3438282 C363.69188477 214.00250483 363.69188477 214.00250483 354.02929688 238.42382812 C351.56703577 245.2840902 352.40797232 249.31197725 355 256 C355.5149837 257.62945459 356.01507164 259.2636934 356.5 260.90234375 C356.7475 261.73185547 356.995 262.56136719 357.25 263.41601562 C357.4975 264.24810547 357.745 265.08019531 358 265.9375 C358.2475 266.73478516 358.495 267.53207031 358.75 268.35351562 C363.42019984 284.22489788 364.44098794 300.1630687 364.34057617 316.6081543 C364.33972733 318.59122708 364.34021003 320.5743008 364.34190369 322.55737305 C364.34275505 327.87641148 364.32527042 333.1952418 364.30418181 338.5142324 C364.28526983 344.09686426 364.28365324 349.6795023 364.28010559 355.26216125 C364.27082739 365.80490736 364.24627154 376.34755875 364.21605712 386.89026338 C364.17606841 401.15697063 364.16002405 415.42370427 364.14255047 429.69045353 C364.11444684 452.12703979 364.0546493 474.56342631 364 497 C334.3 497 304.6 497 274 497 C273.82996159 480.79169552 273.66186643 464.58338619 273.5 448.375 C273.48218412 446.59148636 273.48218412 446.59148636 273.46400833 444.77194214 C273.11332907 409.51350515 272.83077932 374.26038365 273 339 C272.03610352 339.52891846 271.07220703 340.05783691 270.07910156 340.6027832 C262.78279633 344.57304628 255.56196363 348.31552382 247.75 351.1875 C246.87230957 351.51572754 245.99461914 351.84395508 245.09033203 352.18212891 C213.34024014 363.76746815 179.20868461 366.37135306 146 360 C145.27200195 359.86609863 144.54400391 359.73219727 143.79394531 359.59423828 C135.0022741 357.93143939 126.68488492 355.33242232 118.3125 352.1875 C117.49394531 351.88046143 116.67539063 351.57342285 115.83203125 351.25708008 C108.24135993 348.29272475 101.37904487 344.68952243 94 341 C93.67 392.48 93.34 443.96 93 497 C62.64 497 32.28 497 1 497 C0.8790909 448.6542714 0.8790909 448.6542714 0.85351562 428.3046875 C0.83575501 414.28609909 0.81494191 400.26756502 0.77368164 386.24902344 C0.74363875 376.03675821 0.72439188 365.82453731 0.71773452 355.61222911 C0.71384732 350.21243087 0.70480871 344.81275936 0.68280983 339.41300201 C0.66220859 334.31423374 0.65621313 329.21564249 0.66067696 324.11683655 C0.65986219 322.26111127 0.65403907 320.4053791 0.64238358 318.54969025 C0.51397985 297.0216363 3.32426774 274.92106994 11.36328125 254.80859375 C12.87493874 248.14060763 10.50166632 242.16660192 8.1875 236 C2.46679019 219.88801592 -0.18900373 201.69601759 -0.12025452 184.59068298 C-0.12110894 183.79486755 -0.12196337 182.99905213 -0.12284368 182.17912108 C-0.1244773 179.53988193 -0.11901216 176.9007078 -0.11352539 174.26147461 C-0.11324303 172.35869346 -0.1134022 170.45591219 -0.1139679 168.5531311 C-0.11425398 163.40712434 -0.10838777 158.26114105 -0.10139394 153.11513972 C-0.09512896 147.72996436 -0.09455411 142.34478843 -0.09336853 136.95960999 C-0.09026448 126.77073075 -0.08206358 116.58186229 -0.07201904 106.39298779 C-0.05873547 92.61859266 -0.05335052 78.84419457 -0.04751682 65.06979465 C-0.03812307 43.37985504 -0.01819795 21.68993815 0 0 Z " fill="#3D9970" transform="translate(74,58)"/>
<path d="M0 0 C44.20657867 -0.11918579 88.41133036 -0.05753625 132.6166687 0.31838989 C137.13774653 0.35678082 141.65882474 0.39104181 146.17996216 0.42160034 C151.56656722 0.45843328 156.95301428 0.50475298 162.33948135 0.55800056 C164.31369605 0.57619336 166.28794055 0.59146299 168.26220322 0.60336113 C201.21607288 0.81040658 237.81905129 2.52310834 264 25 C273.63622141 36.59952639 277.37942694 48.66761674 277.25 63.5625 C277.25773437 64.45646484 277.26546875 65.35042969 277.2734375 66.27148438 C277.22589158 82.52030189 270.19231407 95.43362053 259.3125 107.1875 C247.47114044 118.49692349 231.09017683 124.4183634 216 130 C217.20011719 130.08636719 218.40023437 130.17273438 219.63671875 130.26171875 C243.6468093 132.2017068 267.78832877 136.35884865 284.20703125 155.46484375 C292.64874565 167.40094974 293.43220971 181.67892741 291.38671875 195.7109375 C288.62839994 211.68926269 282.37798329 227.66317978 268.76953125 237.36328125 C232.7433016 261.90324868 188.43921779 260.32260586 146.70441127 260.20278788 C141.53020568 260.19011478 136.35599667 260.18909717 131.18177795 260.18673706 C121.42548956 260.18057023 111.66924707 260.1642258 101.91297871 260.14403808 C90.78807054 260.12152789 79.66315994 260.110648 68.53823459 260.10064721 C45.69213115 260.07985416 22.84606817 260.04477363 0 260 C-0.00499018 257.46234901 -0.00861547 254.92470801 -0.01147461 252.38705444 C-0.01301292 251.67581893 -0.01455124 250.96458342 -0.01613617 250.23179531 C-0.02134258 244.05515013 0.1739121 237.89741871 0.4375 231.7265625 C1.80145505 196.35951506 2.20053084 161.02677879 2.18847656 125.63353729 C2.18750503 122.08090566 2.18846907 118.52827845 2.18969727 114.97564697 C2.19065612 109.29589633 2.1849331 103.61618854 2.17376137 97.93644905 C2.16997232 95.83425155 2.16752584 93.73205109 2.16658592 91.62985039 C2.15804347 80.1479305 1.91040888 68.731473 1.23680115 57.26911926 C0.89419996 51.36618148 0.77668761 45.46225524 0.68359375 39.55078125 C0.66281265 38.40127487 0.64203156 37.25176849 0.62062073 36.06742859 C0.55650226 32.48249842 0.49689864 28.89751113 0.4375 25.3125 C0.39418292 22.84569779 0.35056509 20.37890084 0.30664062 17.91210938 C0.20096795 11.94146233 0.09897679 5.97076161 0 0 Z " fill="#3B3B3B" transform="translate(557,188)"/>
<path d="M0 0 C2.43389775 2.22379671 4.69943931 4.55551976 6.96191406 6.95532227 C7.69796875 7.72231445 8.43402344 8.48930664 9.19238281 9.27954102 C24.65060133 26.89054818 28.04569321 50.37403948 28.16114426 72.92990112 C28.17312983 75.06744976 28.19262437 77.2048135 28.21426392 79.34228516 C28.27525358 85.41212727 28.3298725 91.48193961 28.36328125 97.55200195 C28.38436576 101.28549688 28.41976047 105.01863392 28.46403885 108.75192261 C28.47807109 110.16148645 28.48689196 111.57111336 28.49009323 112.98074341 C28.24441882 126.71835234 28.24441882 126.71835234 34.33691406 138.45532227 C36.83071925 139.8803538 39.2895644 140.91855785 41.96191406 141.95532227 C41.99117426 146.12197396 42.0088 150.28859885 42.02441406 154.45532227 C42.03279297 155.62836914 42.04117187 156.80141602 42.04980469 158.01000977 C42.0668925 164.09327108 41.90694158 169.94286371 40.96191406 175.95532227 C28.53421004 178.84483358 15.93033757 179.18117774 3.22387695 179.25048828 C1.75926063 179.26203093 0.29468711 179.28251911 -1.16967773 179.31201172 C-14.89284061 179.58626048 -28.12581889 178.23191759 -39.03808594 168.95532227 C-50.74242686 157.51698909 -52.47485148 140.43455893 -53.03808594 124.95532227 C-53.51117187 126.04329102 -53.98425781 127.13125977 -54.47167969 128.25219727 C-64.23280171 150.16032664 -77.87835712 164.81511921 -99.99511719 174.59594727 C-110.49754476 178.45033535 -121.18530735 179.45982474 -132.28808594 179.33032227 C-133.55007813 179.320896 -134.81207031 179.31146973 -136.11230469 179.30175781 C-154.54622746 179.00576788 -171.94821575 176.35724047 -187.03808594 164.95532227 C-188.06933594 164.23344727 -189.10058594 163.51157227 -190.16308594 162.76782227 C-198.76648347 155.28764607 -203.61128067 143.03325372 -205.03808594 131.95532227 C-205.97858556 117.08251943 -204.7279399 104.49188492 -196.03808594 91.95532227 C-195.10996094 90.59407227 -195.10996094 90.59407227 -194.16308594 89.20532227 C-181.3380323 75.62585371 -161.14428377 69.21562291 -143.03808594 66.95532227 C-156.4528049 57.83591659 -170.03954213 49.14997194 -184.03808594 40.95532227 C-184.70888184 40.56135254 -185.37967773 40.16738281 -186.07080078 39.76147461 C-189.38661623 37.81458168 -192.70794106 35.87760102 -196.03808594 33.95532227 C-187.77900072 19.04006639 -172.14982565 6.89575188 -158.03808594 -2.04467773 C-157.44431152 -2.4251123 -156.85053711 -2.80554688 -156.23876953 -3.19750977 C-114.87700453 -29.27982943 -39.01385004 -33.54355945 0 0 Z " fill="#3B3B3B" transform="translate(1063.0380859375,271.044677734375)"/>
<path d="M0 0 C1.35254883 0.25740967 1.35254883 0.25740967 2.73242188 0.52001953 C25.9913491 5.03541501 50.97385113 13.30686106 70 28 C70 31 70 31 68.56410217 32.78993225 C67.89205246 33.45230392 67.22000275 34.1146756 66.52758789 34.79711914 C65.77002701 35.55122574 65.01246613 36.30533234 64.23194885 37.08229065 C63.40388229 37.8917363 62.57581573 38.70118195 61.72265625 39.53515625 C60.88157822 40.36961777 60.04050018 41.20407928 59.17393494 42.06382751 C56.47708759 44.73719969 53.77031587 47.400242 51.0625 50.0625 C48.35998361 52.73000908 45.65958492 55.39961354 42.96177673 58.07188416 C41.27998082 59.73664316 39.5951209 61.39831333 37.90699768 63.05665588 C36.76592812 64.18308754 36.76592812 64.18308754 35.60180664 65.33227539 C34.59253868 66.32463951 34.59253868 66.32463951 33.56288147 67.33705139 C31.91487223 68.93137124 31.91487223 68.93137124 31 71 C26.45903344 69.61021154 22.19972597 67.80509081 17.87060547 65.87744141 C-4.70721445 55.86431181 -34.02719865 46.19261066 -58.75 53.625 C-63.99974438 55.71000486 -70.36945911 58.73891822 -73 64 C-73.62559723 69.65741201 -73.62559723 69.65741201 -71.125 74.4375 C-68.07720705 76.67852423 -66.42968682 77.12742507 -62.703125 77.1328125 C-61.82527344 77.13410156 -60.94742187 77.13539063 -60.04296875 77.13671875 C-59.12128906 77.13285156 -58.19960937 77.12898438 -57.25 77.125 C-55.93708984 77.13080078 -55.93708984 77.13080078 -54.59765625 77.13671875 C-49.59939898 77.12950626 -44.6689791 76.91859476 -39.6875 76.5078125 C-30.69993516 75.82448277 -21.71690788 75.77768778 -12.70654297 75.75976562 C-9.76891726 75.75006248 -6.8319939 75.71893247 -3.89453125 75.6875 C20.07222339 75.55392963 44.71247072 78.53158873 62.83984375 95.7109375 C71.50993275 104.89840975 73.5089517 115.05144369 73.375 127.375 C73.38660156 128.43460938 73.39820313 129.49421875 73.41015625 130.5859375 C73.35291133 146.15655479 67.61461444 161.6459527 56.8125 173 C31.52566168 196.07898341 -5.30914625 200.47340689 -38.1875 200.3125 C-38.98982056 200.31034485 -39.79214111 200.3081897 -40.61877441 200.30596924 C-81.43745151 200.13106383 -125.26975781 189.96580621 -159 166 C-155.05590948 159.48310871 -150.8231468 153.3345424 -146.12231445 147.34008789 C-142.39313425 142.56514768 -138.84218659 137.67374322 -135.3125 132.75 C-130.99670207 126.73402021 -126.64109632 120.77183616 -122 115 C-117.90176733 116.49303644 -114.35843315 118.50471852 -110.625 120.75 C-86.64601779 134.66026777 -52.79832436 144.09771465 -25.1875 137.75 C-20.67541739 136.41615945 -16.96789117 134.50149661 -13 132 C-12.34 132 -11.68 132 -11 132 C-9.24591085 127.50514654 -8.38629765 123.82194702 -9 119 C-11.54137159 115.84045695 -13.14622659 114.28459114 -17 113 C-18.98260678 112.90526672 -20.96825733 112.86927809 -22.953125 112.8671875 C-24.13003906 112.86589844 -25.30695313 112.86460937 -26.51953125 112.86328125 C-28.36611328 112.86908203 -28.36611328 112.86908203 -30.25 112.875 C-31.46558594 112.87113281 -32.68117188 112.86726563 -33.93359375 112.86328125 C-35.70669922 112.86521484 -35.70669922 112.86521484 -37.515625 112.8671875 C-38.59102539 112.86831543 -39.66642578 112.86944336 -40.77441406 112.87060547 C-44.01458561 112.94065679 -44.01458561 112.94065679 -47.24365234 113.49560547 C-52.04023784 114.13968097 -56.75158828 114.1817343 -61.5859375 114.203125 C-62.60112457 114.20882507 -63.61631165 114.21452515 -64.66226196 114.22039795 C-66.80884776 114.22981686 -68.9554478 114.23636952 -71.10205078 114.24023438 C-74.33002225 114.2498658 -77.5573359 114.2808886 -80.78515625 114.3125 C-102.73715744 114.42557885 -125.63095071 112.27466879 -142.75 96.875 C-152.38842262 86.57578717 -154.59320499 73.59923192 -154.25 60.0703125 C-153.53311432 44.85082948 -147.49482605 32.81930038 -136.60058594 22.41650391 C-102.91928207 -7.39114177 -41.91108593 -8.31891229 0 0 Z " fill="#3B3B3B" transform="translate(1267,252)"/>
<path d="M0 0 C27.72 0 55.44 0 84 0 C84 92.07 84 184.14 84 279 C56.28 279 28.56 279 0 279 C0 186.93 0 94.86 0 0 Z " fill="#3C3C3C" transform="translate(1459,169)"/>
<path d="M0 0 C1.52062168 0.24869347 3.04147198 0.49599145 4.5625 0.7421875 C20.68882046 3.50177175 47.98821244 8.98821244 60 21 C60.15126957 23.35999683 60.23694171 25.6880632 60.2734375 28.05078125 C60.28605621 28.77235916 60.29867493 29.49393707 60.31167603 30.23738098 C60.53334198 45.99939119 60.74180619 61.0699457 55 76 C54.71592285 76.74330566 54.4318457 77.48661133 54.13916016 78.25244141 C44.34694242 102.89486253 25.90572885 119.32504003 2 130 C-8.10771478 134.28934476 -17.35589801 135.32316596 -28.3125 135.25 C-30.03243164 135.26160156 -30.03243164 135.26160156 -31.78710938 135.2734375 C-56.48702955 135.2175237 -77.04358108 125.92241165 -95 109 C-105.23521672 98.26273942 -112.56789076 85.12636938 -117 71 C-117.26256592 70.21044922 -117.52513184 69.42089844 -117.7956543 68.60742188 C-120.6302338 59.0280952 -120.33875379 49.6338168 -120.1875 39.75 C-120.17241737 38.02214716 -120.15873533 36.29428149 -120.14648438 34.56640625 C-120.11378169 30.37728156 -120.06220022 26.18878627 -120 22 C-83.46752751 1.66781766 -41.71743391 -7.95924726 0 0 Z " fill="#FE851B" transform="translate(286,194)"/>
<path d="M0 0 C3.04743293 3.60831015 4.72375539 7.604102 6.625 11.875 C19.56390707 40.04075489 41.45572071 63.72870775 66.82421875 81.17578125 C67.45862664 81.62479734 68.09303453 82.07381344 68.74666691 82.53643608 C70.95091524 84.04876974 70.95091524 84.04876974 73.34062099 85.05768013 C76.10755178 86.43791778 77.93506701 87.68204179 80 90 C81.33623589 95.00869327 81.13946767 99.95701516 81.02172852 105.09326172 C81.01918825 106.64092357 81.02061799 108.18859627 81.02571106 109.73625183 C81.02829004 113.92886633 80.97544059 118.1191563 80.91254544 122.31123114 C80.85622308 126.69533289 80.85099227 131.07948999 80.84031677 135.46389771 C80.81236073 143.76217222 80.73853058 152.05937763 80.64817137 160.35718167 C80.52869394 171.57279643 80.48017009 182.78870427 80.42765141 194.00479507 C80.34306301 211.67066395 80.16375871 229.33427691 80 247 C49.64 247 19.28 247 -12 247 C-12.1209091 198.6542714 -12.1209091 198.6542714 -12.14648438 178.3046875 C-12.16424499 164.28609909 -12.18505809 150.26756502 -12.22631836 136.24902344 C-12.25636125 126.03675821 -12.27560812 115.82453731 -12.28226548 105.61222911 C-12.28615268 100.21243087 -12.29519129 94.81275936 -12.31719017 89.41300201 C-12.33779141 84.31423374 -12.34378687 79.21564249 -12.33932304 74.11683655 C-12.34013781 72.26111127 -12.34596093 70.4053791 -12.35761642 68.54969025 C-12.49838822 44.94801688 -8.51795643 22.02799389 0 0 Z " fill="#FE851C" transform="translate(87,308)"/>
<path d="M0 0 C0.66 0 1.32 0 2 0 C6.02666098 11.54298465 9.96387592 22.91461834 12 35 C12.16125303 35.82306735 12.32250607 36.6461347 12.48864555 37.49414349 C14.30935183 47.65265399 14.2684294 57.63760041 14.22705078 67.92700195 C14.22648563 69.9091898 14.22680526 71.89137807 14.22793579 73.87356567 C14.22850623 79.21770405 14.21680224 84.56175142 14.20278788 89.90586877 C14.19022871 95.50455776 14.18910595 101.10324917 14.18673706 106.70195007 C14.18053747 117.28736973 14.16414734 127.87274775 14.14403808 138.45814914 C14.11743647 152.77387362 14.10669414 167.0896096 14.09503365 181.40535259 C14.07626558 203.93693288 14.03640976 226.46842532 14 249 C-15.7 249 -45.4 249 -76 249 C-76.0721875 242.13058594 -76.144375 235.26117187 -76.21875 228.18359375 C-76.24351913 225.8423793 -76.26828827 223.50116486 -76.29380798 221.08900452 C-76.41587388 209.40765707 -76.52440968 197.72634001 -76.61157227 186.04467773 C-76.64800363 181.28759287 -76.6851485 176.53051399 -76.72265625 171.7734375 C-76.73174074 170.59868677 -76.74082523 169.42393604 -76.75018501 168.21358681 C-76.85688244 154.87553076 -77.04129046 141.54978256 -77.49233627 128.21878624 C-77.63512117 123.79085539 -77.73267571 119.36163231 -77.83642578 114.93264771 C-77.90324766 112.70458584 -77.99511753 110.47711969 -78.11328125 108.25119019 C-78.9466173 92.48820877 -78.9466173 92.48820877 -75.6942749 88.33099365 C-71.91786342 84.97281019 -67.57395863 83.05429017 -63 81 C-60.74252541 79.53324859 -60.74252541 79.53324859 -58.921875 78.03125 C-58.3863501 77.61012939 -57.8508252 77.18900879 -57.29907227 76.75512695 C-56.78787842 76.34093506 -56.27668457 75.92674316 -55.75 75.5 C-55.17628662 75.04133545 -54.60257324 74.5826709 -54.01147461 74.11010742 C-46.00589252 67.65492968 -38.52266787 60.96927936 -32 53 C-31.55897949 52.47132324 -31.11795898 51.94264648 -30.66357422 51.39794922 C-21.46721853 40.35686102 -13.98814904 28.85096775 -7.1875 16.1875 C-6.81407471 15.49414551 -6.44064941 14.80079102 -6.0559082 14.08642578 C-3.6411801 9.4981683 -1.7347343 4.88680671 0 0 Z " fill="#FE851B" transform="translate(424,306)"/>
<path d="M0 0 C28.05 0 56.1 0 85 0 C85 23.1091713 85 23.1091713 84.5078125 34.2578125 C83.75789502 53.9611928 83.84854945 73.67295588 83.86962891 93.38769531 C83.87534653 98.80565504 83.87201749 104.2235654 83.86605644 109.64152336 C83.86239795 113.90416824 83.86361298 118.16680191 83.86618423 122.42944717 C83.86683785 124.42477551 83.86608196 126.42010495 83.86370468 128.41543198 C83.85307512 139.82501837 84.0306082 151.19580317 84.65102959 162.5906353 C85.19110381 173.41922241 85 184.10410476 85 195 C57.28 195 29.56 195 1 195 C1.01160156 184.7596875 1.02320313 174.519375 1.03515625 163.96875 C1.04027596 157.41536432 1.04513247 150.86198013 1.04882812 144.30859375 C1.05471981 133.94547012 1.06157496 123.58235473 1.07543945 113.21923828 C1.08554009 105.66571753 1.09188917 98.11220357 1.09408849 90.55867624 C1.09537008 86.57482973 1.09828747 82.59100263 1.10573006 78.60716248 C1.13667266 61.38678337 0.9977573 44.19739724 0.35076237 26.98761749 C0.01752987 17.96956832 0 9.04296481 0 0 Z " fill="#3B3B3B" transform="translate(1356,253)"/>
<path d="M0 0 C7.86264156 5.98937039 13.41894061 14.26220637 15.1484375 24.07421875 C16.59893901 36.95084069 16.09696794 47.85662991 8.3125 58.5625 C1.61547997 66.47459118 -6.00608306 71.33757499 -16.4375 72.75 C-20.6475788 73.06156454 -24.84170938 73.15835903 -29.0625 73.1875 C-30.63535767 73.20272705 -30.63535767 73.20272705 -32.23999023 73.21826172 C-44.67131974 73.07975652 -54.14212463 70.19899135 -63.4375 61.75 C-71.58912284 52.80350937 -74.15952618 40.85047221 -73.75390625 29.03515625 C-72.75392271 18.65261105 -68.38197173 9.20796972 -60.8125 1.9375 C-44.53668879 -11.35336514 -17.18465079 -11.09260325 0 0 Z " fill="#3C3C3C" transform="translate(1426.4375,158.25)"/>
<path d="M0 0 C11.91843884 -0.06797986 23.83674732 -0.12293354 35.75533676 -0.15543652 C41.29057818 -0.1710422 46.8256792 -0.19218676 52.36083984 -0.22631836 C57.71008927 -0.25909432 63.05920429 -0.27689128 68.40854645 -0.28463173 C70.44172529 -0.29014265 72.47489741 -0.3009035 74.50801849 -0.31719017 C102.83452208 -0.53492507 102.83452208 -0.53492507 113 8 C115.92728991 11.38467896 116.55190311 14.39173013 116.33984375 18.87890625 C115.60540719 23.46280339 114.03833378 27.4125419 110.3046875 30.3203125 C100.51773043 35.66945908 88.12752662 36.16420535 77.19726562 36.11352539 C76.35729034 36.11367142 75.51731506 36.11381744 74.65188599 36.1139679 C71.90331346 36.11327683 69.15481054 36.10552256 66.40625 36.09765625 C64.48954302 36.0957892 62.57283556 36.09436665 60.65612793 36.09336853 C55.63218855 36.08956595 50.60827846 36.07975512 45.58435059 36.06866455 C40.44946692 36.05840169 35.31457848 36.0538605 30.1796875 36.04882812 C20.11977678 36.03813067 10.05989542 36.02055234 0 36 C0 24.12 0 12.24 0 0 Z " fill="#FDFDFD" transform="translate(641,347)"/>
<path d="M0 0 C1.04542969 0.3403125 2.09085937 0.680625 3.16796875 1.03125 C14.09866737 4.89682562 24.2360038 10.38603045 33 18 C28.79157048 28.18882938 12.71106421 33.72770615 3.04394531 37.83007812 C-6.4188151 41.56648723 -15.16840419 42.31774021 -25.3125 42.25 C-27.03243164 42.26160156 -27.03243164 42.26160156 -28.78710938 42.2734375 C-50.11096355 42.22516618 -70.10400498 35.53348116 -86 21 C-82.11530737 11.26668679 -67.96466479 5.87289246 -59 2 C-41.09241166 -4.59542874 -18.26261829 -6.26435593 0 0 Z " fill="#FEFEFD" transform="translate(283,287)"/>
<path d="M0 0 C11.26651944 -0.06800084 22.53290071 -0.12294547 33.79957962 -0.15543652 C39.0321546 -0.17103708 44.26458088 -0.19217203 49.49707031 -0.22631836 C54.55454707 -0.25911293 59.61188153 -0.27689511 64.66945648 -0.28463173 C66.59099311 -0.29013937 68.51252269 -0.30089363 70.43399811 -0.31719017 C97.62394417 -0.53845024 97.62394417 -0.53845024 107.875 8.6875 C109.68824358 12.41472292 109.61480385 15.94370792 109 20 C106.41560968 25.59951237 102.44705927 28.45951072 97 31 C87.07969319 34.01420273 76.35738868 33.25445709 66.11328125 33.1953125 C64.20086313 33.19157584 62.28844307 33.18873196 60.37602234 33.18673706 C55.37674544 33.17915201 50.37758735 33.15954835 45.37835693 33.1373291 C40.263322 33.11675939 35.14826762 33.1077117 30.03320312 33.09765625 C20.0220752 33.07629696 10.01106613 33.04115741 0 33 C0 22.11 0 11.22 0 0 Z " fill="#FDFDFD" transform="translate(641,254)"/>
<path d="M0 0 C0.59579058 5.38418149 0.78087752 9.6740766 -2.5 14.1875 C-3.63044837 15.49065576 -4.7983999 16.76214473 -6 18 C-6.556875 18.59554688 -7.11375 19.19109375 -7.6875 19.8046875 C-20.98419656 32.70019063 -41.88611434 37.80310425 -59.94824219 37.52807617 C-65.37610321 37.27068892 -70.70121352 36.55307862 -75 33 C-77.09140625 29.56460809 -77.57442896 27.0210027 -77 23 C-68.24472693 12.24352165 -54.27826752 11.43592341 -41.45620728 9.55133057 C-28.88406788 7.68905752 -16.7322809 5.74172529 -4.83203125 1.1015625 C-2 0 -2 0 0 0 Z " fill="#FBFBFB" transform="translate(1011,355)"/>
<path d="M0 0 C0.86625 0.598125 1.7325 1.19625 2.625 1.8125 C4 4 4 4 4.125 7.4375 C2.75501627 11.77578181 0.95784349 13.92669733 -3 16 C-11.97810759 18.99656508 -21.96458432 18.41338532 -31.3125 18.5625 C-34.5378716 18.62136536 -37.76309578 18.68562006 -40.98828125 18.75390625 C-41.76521835 18.7698735 -42.54215546 18.78584076 -43.34263611 18.80229187 C-48.9968132 18.93483656 -54.61175411 19.27886925 -60.24560547 19.79052734 C-64.49763102 20.11389536 -68.73893561 20.0865679 -73 20 C-59.26730029 2.29204511 -21.23155438 -14.92924384 0 0 Z " fill="#FBFBFB" transform="translate(1007,316)"/>
</svg>
